<svg width="45" height="53" viewBox="0 0 45 53" fill="none" xmlns="http://www.w3.org/2000/svg">
<path d="M42.5 52.9657H2.5C1.83696 52.9657 1.20107 52.6891 0.732233 52.1969C0.263392 51.7046 0 51.0369 0 50.3407V3.09174C0 2.39556 0.263392 1.7279 0.732233 1.23563C1.20107 0.743353 1.83696 0.466797 2.5 0.466797H42.5C43.163 0.466797 43.7989 0.743353 44.2678 1.23563C44.7366 1.7279 45 2.39556 45 3.09174V50.3407C45 51.0369 44.7366 51.7046 44.2678 52.1969C43.7989 52.6891 43.163 52.9657 42.5 52.9657ZM40 47.7158V5.71669H5V47.7158H40ZM15 10.9666V16.2165C15 18.305 15.7902 20.308 17.1967 21.7848C18.6032 23.2616 20.5109 24.0913 22.5 24.0913C24.4891 24.0913 26.3968 23.2616 27.8033 21.7848C29.2098 20.308 30 18.305 30 16.2165V10.9666H35V16.2165C35 19.6974 33.683 23.0357 31.3388 25.497C28.9946 27.9584 25.8152 29.3412 22.5 29.3412C19.1848 29.3412 16.0054 27.9584 13.6612 25.497C11.317 23.0357 10 19.6974 10 16.2165V10.9666H15Z" fill="#C1CCC7"/>
</svg>
